<svg viewBox="0 0 90 25" fill="none" xmlns="http://www.w3.org/2000/svg"><path d="M70.472 12.144h3.473v12.76h-3.473v-12.76zm11.736.005a6.381 6.381 0 0 0 0 12.76 6.378 6.378 0 0 0 6.378-6.382 6.377 6.377 0 0 0-6.378-6.378zm0 9.807a3.427 3.427 0 0 1-3.429-3.43 3.427 3.427 0 0 1 3.43-3.428 3.427 3.427 0 0 1 3.428 3.429 3.434 3.434 0 0 1-3.429 3.428z" fill="#FFC71C"/><path d="M45.757 7.607h-3.785.01a.541.541 0 0 1-.377-.13.458.458 0 0 1-.143-.35V4.692h4.285c.143 0 .312-.02.455-.158a.61.61 0 0 0 .193-.455.625.625 0 0 0-.198-.465.625.625 0 0 0-.465-.198h-4.27v-.881a.636.636 0 0 0-.183-.45.62.62 0 0 0-.46-.193.64.64 0 0 0-.465.193.633.633 0 0 0-.198.465v5.12c0 .817.395 1.218 1.207 1.218l4.413-.005c.174 0 .327-.06.456-.183a.613.613 0 0 0 .193-.46.599.599 0 0 0-.198-.45.645.645 0 0 0-.47-.183zm7.135-4.186h-3.073c-.153 0-.317.02-.455.148a.635.635 0 0 0-.188.46.64.64 0 0 0 .193.465.652.652 0 0 0 .465.198h2.464c.153 0 .272.045.361.134.09.089.134.208.134.351l.005 1.95a.437.437 0 0 1-.139.346.53.53 0 0 1-.376.134h-3.127a.547.547 0 0 1-.386-.134.448.448 0 0 1-.144-.346l-.004-4.597a.62.62 0 0 0-.188-.45.61.61 0 0 0-.456-.193.664.664 0 0 0-.47.198.644.644 0 0 0-.198.465v5.106c0 .816.421 1.232 1.247 1.232h4.295c.826 0 1.242-.416 1.242-1.227V4.618c.01-.797-.386-1.188-1.202-1.197zm-14.23-.015h-3.538c-.06 0-.114-.005-.139-.005a.216.216 0 0 1-.203-.114c-.123-.168-.38-.233-.579-.233a.704.704 0 0 0-.514.223c-.124.134-.149.282-.149.455V4.5c-.005.035-.005.07-.005.104V8.23a.63.63 0 0 0 .198.46.64.64 0 0 0 .465.193c.178 0 .332-.06.456-.188a.627.627 0 0 0 .188-.46V5.172c0-.153.054-.282.143-.366a.564.564 0 0 1 .371-.134h3.32a.621.621 0 0 0 .45-.163.61.61 0 0 0 .194-.455.644.644 0 0 0-.198-.465.635.635 0 0 0-.46-.183zm22.404-.025h-4.81c-.801.015-1.202.42-1.197 1.197 0 .015-.025 1.693-.025 1.94v1.727c0 .173.064.326.193.455a.625.625 0 0 0 .45.193.62.62 0 0 0 .46-.193.648.648 0 0 0 .198-.455V7.107l.005-1.237.005-.89c0-.214.1-.318.297-.318l4.433-.004c.154 0 .317-.015.45-.149a.637.637 0 0 0 .194-.455.617.617 0 0 0-.198-.465.574.574 0 0 0-.455-.208z" fill="#fff"/><path d="M59.918 5.949a.775.775 0 0 0-.52-.193h-1.257a.775.775 0 0 0-.52.193.63.63 0 0 0-.222.495c0 .198.074.36.223.495a.751.751 0 0 0 .52.193h1.256a.751.751 0 0 0 .52-.193.637.637 0 0 0 .222-.495.615.615 0 0 0-.222-.495z" fill="#fff"/><path d="M45.425 12.139V19.6c0 1.663.57 2.974 1.697 3.9 1.133.93 2.514 1.404 4.107 1.404 1.584 0 2.969-.475 4.102-1.405 1.128-.925 1.697-2.236 1.697-3.899V12.14h-3.157V19.6c0 .733-.267 1.311-.791 1.712-.51.396-1.133.594-1.85.594-.718 0-1.342-.198-1.856-.594-.525-.405-.792-.98-.792-1.712V12.14h-3.157zm15.616 9.688l-2.583-9.683h3.26l2.01 7.486 1.984-7.481h3.216l-2.583 9.683c-.287 1.083-.584 1.865-.895 2.35-.307.485-.916.727-1.821.727-.797 0-1.361-.267-1.703-.811-.35-.544-.643-1.301-.885-2.271zm-20.633-9.683v1a6.358 6.358 0 0 0-3.132-.985 5.315 5.315 0 0 0-.277-.01 6.377 6.377 0 0 0-6.378 6.378v.005a6.381 6.381 0 0 0 9.792 5.393v.974h2.969V12.144h-2.974zm.01 6.383a3.427 3.427 0 0 1-3.429 3.428 3.427 3.427 0 0 1-3.429-3.428 3.427 3.427 0 0 1 3.43-3.43 3.427 3.427 0 0 1 3.428 3.43z" fill="#FFC71C"/><path d="M21.101 3.762c.045.07.144.257.183.322-3.043-.1-6.62.93-9.925 3.102-3.573 2.345-5.967 5.586-6.977 8.659-.257-.292-.396-.446-.569-.732-.86-1.46-.945-3.405-.252-5.29C4.6 8.003 6.51 5.845 9.493 4.034c1.668-1.01 3.375-1.92 5.082-2.36 2.8-.366 5.314.208 6.526 2.088z" fill="#fff"/><path d="M28.276 3.802c-2.42-3.716-7.6-4.706-13.4-2.692 2.984-.416 5.612.376 6.903 2.365 2.148 3.295-.594 8.783-5.61 12.083-5.018 3.3-10.827 3.305-12.97.005-.994-1.53-1.023-3.503-.271-5.502C.34 13.994-.293 18.244 1.69 21.292c3.137 4.825 11.637 4.825 18.975-.005 7.343-4.834 10.752-12.661 7.61-17.485z" fill="#FFC71C"/></svg>