<svg viewBox="0 0 145 35" xmlns="http://www.w3.org/2000/svg"><path d="M40.465 3.6h3.54c.888 0 1.676.176 2.364.528s1.22.848 1.596 1.488c.384.632.576 1.36.576 2.184s-.192 1.556-.576 2.196a3.852 3.852 0 0 1-1.596 1.476c-.688.352-1.476.528-2.364.528h-3.54zm3.468 7.356c.68 0 1.276-.132 1.788-.396.52-.264.92-.632 1.2-1.104.28-.48.42-1.032.42-1.656s-.14-1.172-.42-1.644c-.28-.48-.68-.852-1.2-1.116-.512-.264-1.108-.396-1.788-.396h-2.268v6.312zm6.278-5.316h1.152V12h-1.152zm.576-1.224a.789.789 0 0 1-.564-.216.718.718 0 0 1-.216-.528c0-.208.072-.384.216-.528a.766.766 0 0 1 .564-.228c.224 0 .408.072.552.216a.662.662 0 0 1 .228.516c0 .216-.076.4-.228.552a.748.748 0 0 1-.552.216zm4.6 7.656c-.52 0-1.02-.068-1.5-.204-.48-.144-.856-.324-1.128-.54l.48-.912c.28.2.62.36 1.02.48s.804.18 1.212.18c1.008 0 1.512-.288 1.512-.864a.56.56 0 0 0-.204-.456 1.235 1.235 0 0 0-.516-.24 9.055 9.055 0 0 0-.864-.18 8.75 8.75 0 0 1-1.26-.276 1.937 1.937 0 0 1-.828-.528c-.232-.248-.348-.596-.348-1.044 0-.576.24-1.036.72-1.38.48-.352 1.124-.528 1.932-.528.424 0 .848.052 1.272.156s.772.244 1.044.42l-.492.912c-.52-.336-1.132-.504-1.836-.504-.488 0-.86.08-1.116.24s-.384.372-.384.636c0 .208.072.372.216.492s.32.208.528.264c.216.056.516.12.9.192.512.088.924.184 1.236.288.32.096.592.264.816.504s.336.576.336 1.008c0 .576-.248 1.036-.744 1.38-.488.336-1.156.504-2.004.504zm7.56-6.492c.616 0 1.168.136 1.656.408s.868.652 1.14 1.14c.28.488.42 1.052.42 1.692s-.14 1.208-.42 1.704a2.894 2.894 0 0 1-1.14 1.14 3.343 3.343 0 0 1-1.656.408c-.456 0-.876-.088-1.26-.264a2.621 2.621 0 0 1-.96-.768v3.288h-1.152V5.64h1.104v1.008c.256-.352.58-.616.972-.792a3.012 3.012 0 0 1 1.296-.276zm-.096 5.484a2.15 2.15 0 0 0 1.092-.276 2.03 2.03 0 0 0 .768-.792c.192-.344.288-.736.288-1.176s-.096-.828-.288-1.164a1.93 1.93 0 0 0-.768-.792 2.15 2.15 0 0 0-1.092-.276c-.4 0-.764.096-1.092.288-.32.184-.576.444-.768.78a2.385 2.385 0 0 0-.276 1.164c0 .44.092.832.276 1.176.184.336.44.6.768.792.328.184.692.276 1.092.276zm7.627 1.008c-.632 0-1.2-.14-1.704-.42s-.9-.664-1.188-1.152a3.357 3.357 0 0 1-.42-1.68c0-.624.14-1.18.42-1.668.288-.496.684-.88 1.188-1.152a3.449 3.449 0 0 1 1.704-.42c.632 0 1.196.14 1.692.42.504.272.896.656 1.176 1.152.288.488.432 1.044.432 1.668s-.144 1.184-.432 1.68c-.28.488-.672.872-1.176 1.152-.496.28-1.06.42-1.692.42zm0-1.008a2.15 2.15 0 0 0 1.092-.276 2.03 2.03 0 0 0 .768-.792c.184-.344.276-.736.276-1.176s-.092-.828-.276-1.164a1.93 1.93 0 0 0-.768-.792 2.15 2.15 0 0 0-1.092-.276c-.408 0-.776.092-1.104.276-.32.184-.576.448-.768.792a2.385 2.385 0 0 0-.276 1.164c0 .44.092.832.276 1.176.192.336.448.6.768.792.328.184.696.276 1.104.276zm8.29-5.484c.808 0 1.448.236 1.92.708.48.464.72 1.148.72 2.052V12h-1.153V8.472c0-.616-.147-1.08-.444-1.392-.296-.312-.72-.468-1.272-.468-.624 0-1.115.184-1.475.552-.36.36-.54.88-.54 1.56V12H75.37V5.64h1.105v.96c.231-.328.543-.58.936-.756a3.33 3.33 0 0 1 1.355-.264zm4.772.06h1.151V12H83.54zm.575-1.224a.789.789 0 0 1-.563-.216.718.718 0 0 1-.217-.528.72.72 0 0 1 .217-.528.766.766 0 0 1 .563-.228c.225 0 .409.072.553.216a.662.662 0 0 1 .227.516.75.75 0 0 1-.227.552.748.748 0 0 1-.553.216zm6.148 1.164c.616 0 1.168.136 1.656.408s.868.652 1.14 1.14c.28.488.42 1.052.42 1.692s-.14 1.208-.42 1.704a2.894 2.894 0 0 1-1.14 1.14 3.343 3.343 0 0 1-1.656.408c-.472 0-.904-.092-1.296-.276a2.495 2.495 0 0 1-.972-.804V12h-1.104V3.096h1.152V6.6c.256-.336.576-.588.96-.756a2.988 2.988 0 0 1 1.26-.264zm-.096 5.484a2.15 2.15 0 0 0 1.092-.276 2.03 2.03 0 0 0 .768-.792c.192-.344.288-.736.288-1.176s-.096-.828-.288-1.164a1.93 1.93 0 0 0-.768-.792 2.15 2.15 0 0 0-1.092-.276c-.4 0-.764.092-1.092.276a1.93 1.93 0 0 0-.768.792 2.385 2.385 0 0 0-.276 1.164c0 .44.092.832.276 1.176.184.336.44.6.768.792.328.184.692.276 1.092.276zm4.904-7.968h1.152V12H95.07V3.096zm9.099 5.76c0 .088-.008.204-.024.348h-5.16c.072.56.316 1.012.732 1.356.424.336.948.504 1.572.504.76 0 1.372-.256 1.836-.768l.636.744a2.777 2.777 0 0 1-1.08.768c-.424.176-.9.264-1.428.264-.672 0-1.268-.136-1.788-.408a3.033 3.033 0 0 1-1.212-1.164 3.357 3.357 0 0 1-.42-1.68c0-.616.136-1.172.408-1.668.28-.496.66-.88 1.14-1.152a3.243 3.243 0 0 1 1.644-.42c.608 0 1.148.14 1.62.42.48.272.852.656 1.116 1.152.272.496.408 1.064.408 1.704zm-3.144-2.304c-.552 0-1.016.168-1.392.504-.368.336-.584.776-.648 1.32h4.08c-.064-.536-.284-.972-.66-1.308-.368-.344-.828-.516-1.38-.516zm9.791 5.52c-.52 0-1.02-.068-1.5-.204-.48-.144-.856-.324-1.128-.54l.48-.912c.28.2.62.36 1.02.48s.804.18 1.212.18c1.008 0 1.512-.288 1.512-.864a.56.56 0 0 0-.204-.456 1.235 1.235 0 0 0-.516-.24 9.055 9.055 0 0 0-.864-.18 8.75 8.75 0 0 1-1.26-.276 1.937 1.937 0 0 1-.828-.528c-.232-.248-.348-.596-.348-1.044 0-.576.24-1.036.72-1.38.48-.352 1.124-.528 1.932-.528.424 0 .848.052 1.272.156s.772.244 1.044.42l-.492.912c-.52-.336-1.132-.504-1.836-.504-.488 0-.86.08-1.116.24s-.384.372-.384.636c0 .208.072.372.216.492s.32.208.528.264c.216.056.516.12.9.192.512.088.924.184 1.236.288.32.096.592.264.816.504s.336.576.336 1.008c0 .576-.248 1.036-.744 1.38-.488.336-1.156.504-2.004.504zm10.115-6.432V12h-1.092v-.96c-.232.328-.54.584-.924.768a2.879 2.879 0 0 1-1.236.264c-.848 0-1.516-.232-2.004-.696-.488-.472-.732-1.164-.732-2.076V5.64h1.152v3.528c0 .616.148 1.084.444 1.404.296.312.72.468 1.272.468.608 0 1.088-.184 1.44-.552s.528-.888.528-1.56V5.64zm3.297 1.068c.2-.368.496-.648.888-.84s.868-.288 1.428-.288v1.116a2.249 2.249 0 0 0-.264-.012c-.624 0-1.116.188-1.476.564-.352.368-.528.896-.528 1.584V12h-1.152V5.64h1.104z" fill="#beccda"/><path d="M48.021 27.2H42.07L40.837 30H39.19l5.072-11.2h1.584L50.933 30h-1.68zm-.56-1.28l-2.416-5.488-2.416 5.488zm9.415-4.48c.821 0 1.557.181 2.208.544.65.363 1.157.87 1.52 1.52.373.65.56 1.403.56 2.256s-.187 1.61-.56 2.272a3.857 3.857 0 0 1-1.52 1.52c-.65.363-1.387.544-2.208.544a3.983 3.983 0 0 1-1.68-.352 3.496 3.496 0 0 1-1.28-1.024v4.384H52.38V21.52h1.472v1.344a3.2 3.2 0 0 1 1.296-1.056 4.017 4.017 0 0 1 1.728-.368zm-.128 7.312a2.87 2.87 0 0 0 1.456-.368 2.707 2.707 0 0 0 1.024-1.056c.256-.459.384-.981.384-1.568s-.128-1.104-.384-1.552a2.571 2.571 0 0 0-1.024-1.056 2.868 2.868 0 0 0-1.456-.368 2.83 2.83 0 0 0-1.456.384 2.74 2.74 0 0 0-1.024 1.04c-.245.448-.368.965-.368 1.552s.123 1.11.368 1.568c.245.448.587.8 1.024 1.056.437.245.923.368 1.456.368zm11.034-7.312c.822 0 1.558.181 2.208.544.651.363 1.158.87 1.52 1.52.374.65.56 1.403.56 2.256s-.186 1.61-.56 2.272a3.858 3.858 0 0 1-1.52 1.52c-.65.363-1.386.544-2.208.544a3.983 3.983 0 0 1-1.68-.352 3.496 3.496 0 0 1-1.28-1.024v4.384h-1.536V21.52h1.472v1.344c.342-.47.774-.821 1.296-1.056a4.017 4.017 0 0 1 1.728-.368zm-.128 7.312a2.87 2.87 0 0 0 1.456-.368 2.707 2.707 0 0 0 1.024-1.056c.256-.459.384-.981.384-1.568s-.128-1.104-.384-1.552a2.572 2.572 0 0 0-1.024-1.056 2.868 2.868 0 0 0-1.456-.368c-.533 0-1.018.128-1.456.384a2.74 2.74 0 0 0-1.024 1.04c-.245.448-.368.965-.368 1.552s.123 1.11.368 1.568c.246.448.587.8 1.024 1.056a2.93 2.93 0 0 0 1.456.368zm13.267 1.344c-.693 0-1.36-.09-2-.272-.64-.192-1.14-.432-1.504-.72l.64-1.216c.374.267.827.48 1.36.64a5.6 5.6 0 0 0 1.616.24c1.344 0 2.016-.384 2.016-1.152a.746.746 0 0 0-.272-.608 1.646 1.646 0 0 0-.688-.32 11.78 11.78 0 0 0-1.152-.24 11.67 11.67 0 0 1-1.68-.368 2.583 2.583 0 0 1-1.104-.704c-.309-.33-.464-.795-.464-1.392 0-.768.32-1.381.96-1.84.64-.47 1.5-.704 2.576-.704.566 0 1.131.07 1.696.208.566.139 1.03.325 1.392.56l-.656 1.216c-.693-.448-1.509-.672-2.448-.672-.65 0-1.146.107-1.488.32-.34.213-.512.496-.512.848 0 .277.096.496.288.656s.427.277.704.352c.288.075.688.16 1.2.256.683.117 1.232.245 1.648.384.427.128.79.352 1.088.672.3.32.448.768.448 1.344 0 .768-.33 1.381-.992 1.84-.65.448-1.54.672-2.672.672zm10.352-.592a2.387 2.387 0 0 1-.832.448 3.65 3.65 0 0 1-1.024.144c-.853 0-1.515-.23-1.984-.688-.47-.459-.704-1.115-.704-1.968v-4.656h-1.44V21.52h1.44v-1.856h1.536v1.856h2.432v1.264h-2.432v4.592c0 .459.112.81.336 1.056.235.245.565.368.992.368.47 0 .87-.133 1.2-.4zm5.208.592c-.843 0-1.6-.187-2.272-.56A4.136 4.136 0 0 1 92.625 28c-.374-.661-.56-1.408-.56-2.24s.186-1.573.56-2.224A3.99 3.99 0 0 1 94.209 22c.672-.373 1.43-.56 2.272-.56.843 0 1.595.187 2.256.56a3.884 3.884 0 0 1 1.568 1.536c.384.65.576 1.392.576 2.224s-.192 1.579-.576 2.24a4.022 4.022 0 0 1-1.568 1.536c-.661.373-1.413.56-2.256.56zm0-1.344a2.87 2.87 0 0 0 1.456-.368 2.707 2.707 0 0 0 1.024-1.056c.245-.459.368-.981.368-1.568s-.123-1.104-.368-1.552a2.572 2.572 0 0 0-1.024-1.056 2.868 2.868 0 0 0-1.456-.368c-.544 0-1.035.123-1.472.368a2.71 2.71 0 0 0-1.024 1.056c-.245.448-.368.965-.368 1.552s.123 1.11.368 1.568c.256.448.597.8 1.024 1.056.437.245.928.368 1.472.368zm7.996-5.808a2.62 2.62 0 0 1 1.184-1.12c.523-.256 1.157-.384 1.904-.384v1.488a2.991 2.991 0 0 0-.352-.016c-.832 0-1.488.25-1.968.752-.469.49-.704 1.195-.704 2.112V30h-1.536v-8.48h1.472zm12.567 2.864a4.5 4.5 0 0 1-.032.464h-6.88c.096.747.421 1.35.976 1.808.565.448 1.264.672 2.096.672 1.013 0 1.829-.341 2.448-1.024l.848.992c-.384.448-.864.79-1.44 1.024-.565.235-1.2.352-1.904.352-.896 0-1.691-.181-2.384-.544A4.047 4.047 0 0 1 109.156 28c-.373-.661-.56-1.408-.56-2.24 0-.821.181-1.563.544-2.224A3.968 3.968 0 0 1 110.66 22c.651-.373 1.381-.56 2.192-.56s1.531.187 2.16.56c.64.363 1.136.875 1.488 1.536.363.661.544 1.419.544 2.272zm-4.192-3.072c-.736 0-1.355.224-1.856.672-.491.448-.779 1.035-.864 1.76h5.44c-.085-.715-.379-1.296-.88-1.744-.491-.459-1.104-.688-1.84-.688z" fill="#f7f7f7"/><path d="M28.895 11.437c-.14.082-3.449 1.816-3.449 5.659.156 4.383 4.176 5.92 4.245 5.92-.069.082-.607 2.094-2.2 4.203-1.265 1.816-2.669 3.648-4.8 3.648-2.028 0-2.756-1.211-5.095-1.211-2.513 0-3.224 1.21-5.148 1.21-2.131 0-3.639-1.929-4.973-3.729-1.732-2.355-3.205-6.05-3.257-9.6-.035-1.88.347-3.729 1.317-5.299 1.369-2.192 3.812-3.68 6.48-3.729 2.045-.065 3.865 1.325 5.113 1.325 1.195 0 3.431-1.325 5.96-1.325 1.092.001 4.004.312 5.807 2.928zm-11.94-3.303c-.364-1.718.64-3.435 1.577-4.53 1.195-1.325 3.084-2.224 4.713-2.224.104 1.717-.555 3.401-1.733 4.628-1.057 1.325-2.877 2.322-4.557 2.126z" fill="#fff"/></svg>