<svg id="Calque_2" data-name="Calque 2" xmlns="http://www.w3.org/2000/svg" viewBox="0 0 71.82 67.61">
    <defs>
        <style>
            .cls-1{fill:#ffc412}
        </style>
    </defs>
    <g id="nuage-gris">
        <g id="B">
            <path d="M39.6 67.61H21.5C9.65 67.61 0 57.96 0 46.1s9.65-21.5 21.5-21.5c7.17 0 13.78 3.55 17.77 9.39 9.43-.19 17.15 7.43 17.15 16.81 0 9.27-7.54 16.81-16.81 16.81ZM21.5 31.4c-8.11 0-14.7 6.59-14.7 14.7s6.59 14.7 14.7 14.7h18.1c5.52 0 10.01-4.49 10.01-10.01S45.12 40.78 39.6 40.78c-.53 0-1.07.04-1.6.13l-2.39.39-1.15-2.14A14.691 14.691 0 0 0 21.5 31.4Z" style="fill:#7e8c9e"/>
            <path class="cls-1" d="M38.83 14.6a3.398 3.398 0 0 0 3.34-3.46l-.14-7.79A3.398 3.398 0 0 0 38.57.01a3.398 3.398 0 0 0-3.34 3.46l.14 7.79a3.398 3.398 0 0 0 3.46 3.34ZM68.36 28.75l-7.79.14a3.398 3.398 0 0 0-3.34 3.46 3.398 3.398 0 0 0 3.46 3.34l7.79-.14a3.398 3.398 0 0 0 3.34-3.46 3.398 3.398 0 0 0-3.46-3.34ZM40.41 30.59c5.56-.1 10.48 2.49 13.62 6.54.53-1.58.82-3.26.82-5.02 0-8.77-7.11-15.88-15.88-15.88-4.77 0-9.03 2.11-11.94 5.43 5.42 1.13 10.23 4.3 13.39 8.93ZM19.64 9.11c-1.35-1.3-3.51-1.27-4.81.09-1.3 1.35-1.27 3.51.09 4.81l5.61 5.41c.68.65 1.55.97 2.42.95.87-.02 1.74-.36 2.39-1.04 1.3-1.35 1.27-3.51-.09-4.81l-5.61-5.41ZM62.71 13.16a3.39 3.39 0 0 0-.09-4.81 3.39 3.39 0 0 0-4.81.09l-5.41 5.61a3.39 3.39 0 0 0 .09 4.81c.68.65 1.55.97 2.42.95.87-.02 1.74-.36 2.39-1.04l5.41-5.61Z"/>
        </g>
    </g>
</svg>